<svg width="200" height="200" viewBox="0 0 311 311" fill="none" xmlns="http://www.w3.org/2000/svg">
<rect x="2.5" y="2.5" width="306" height="306" fill="white" stroke="#34AFB4" stroke-width="5"/>
<path d="M149 188.175C149 204.903 143.878 217.933 133.635 227.266C123.529 236.422 109.257 241 90.8194 241C56.4028 241 36.463 225.593 31 194.778L49.4375 190.024C51.6227 200.941 56.1979 208.953 63.1632 214.059C70.1285 219.166 79.5521 221.719 91.434 221.719C103.726 221.719 113.218 218.99 119.91 213.531C126.602 208.073 129.948 200.061 129.948 189.496C129.948 183.509 128.924 178.667 126.875 174.969C124.826 171.271 121.89 168.278 118.066 165.989C114.242 163.524 109.667 161.499 104.34 159.914C99.1505 158.153 93.3461 156.392 86.9271 154.631C75.728 151.462 67.2604 148.292 61.5243 145.123C55.7882 141.777 51.213 138.168 47.7986 134.294C44.5208 130.42 41.9942 125.842 40.2187 120.559C38.4433 115.277 37.5556 109.29 37.5556 102.599C37.5556 86.9275 42.1308 74.9539 51.2813 66.678C60.5683 58.226 73.816 54 91.0243 54C107.14 54 119.432 57.1695 127.899 63.5085C136.367 69.8474 142.308 80.5885 145.722 95.7316L126.875 99.9576C124.826 90.2731 120.866 83.3178 114.993 79.0918C109.257 74.6897 101.199 72.4887 90.8194 72.4887C79.6204 72.4887 71.0162 74.9539 65.0069 79.8842C59.1343 84.6384 56.1979 91.7698 56.1979 101.278C56.1979 106.913 57.3588 111.579 59.6806 115.277C62.0023 118.798 65.2801 121.88 69.5139 124.521C73.8843 126.986 82.5567 130.068 95.5313 133.766C99.9016 134.998 104.204 136.319 108.437 137.727C112.808 138.96 116.905 140.545 120.729 142.482C124.69 144.242 128.377 146.443 131.792 149.085C135.343 151.55 138.347 154.631 140.806 158.329C143.4 161.851 145.381 166.077 146.747 171.007C148.249 175.761 149 181.484 149 188.175Z" fill="#115571"/>
<path d="M234.521 106C227.737 106 221.831 104.697 216.803 102.092C211.775 99.4861 207.864 95.7459 205.07 90.8711C202.357 85.9121 201 80.0287 201 73.2206V18H212.134V72.212C212.134 80.1127 214.049 86.1223 217.88 90.2407C221.711 94.3591 227.218 96.4183 234.401 96.4183C241.824 96.4183 247.57 94.3171 251.641 90.1146C255.791 85.8281 257.866 79.6084 257.866 71.4556V18H269V72.086C269 79.1461 267.563 85.2397 264.69 90.3668C261.897 95.4097 257.906 99.276 252.718 101.966C247.61 104.655 241.545 106 234.521 106Z" fill="#115571"/>
<path d="M229 136V97H240V136H229Z" fill="#115571"/>
<path d="M238.32 166.36C229.2 166.36 222.08 169.32 216.96 175.24C211.92 181.08 209.4 189.12 209.4 199.36C209.4 209.44 212.04 217.56 217.32 223.72C222.6 229.88 229.76 232.96 238.8 232.96C250.32 232.96 259 227.24 264.84 215.8L273.96 220.36C270.6 227.48 265.84 232.92 259.68 236.68C253.52 240.36 246.36 242.2 238.2 242.2C229.88 242.2 222.68 240.48 216.6 237.04C210.6 233.52 206 228.56 202.8 222.16C199.6 215.76 198 208.16 198 199.36C198 186.16 201.56 175.84 208.68 168.4C215.8 160.96 225.64 157.24 238.2 157.24C247 157.24 254.32 158.96 260.16 162.4C266.08 165.84 270.44 170.92 273.24 177.64L262.68 181.12C260.76 176.32 257.68 172.68 253.44 170.2C249.2 167.64 244.16 166.36 238.32 166.36Z" fill="#115571"/>
<rect x="197" y="144" width="76" height="5" fill="#34AFB4"/>
<rect x="184" y="12" width="94" height="42" fill="white"/>
</svg>
